<?xml version="1.0" encoding="UTF-8" standalone="no"?>
<!-- Created with Inkscape (http://www.inkscape.org/) -->

<svg
   xmlns:figma="http://www.figma.com/figma/ns"
   xmlns:dc="http://purl.org/dc/elements/1.1/"
   xmlns:cc="http://creativecommons.org/ns#"
   xmlns:rdf="http://www.w3.org/1999/02/22-rdf-syntax-ns#"
   xmlns:svg="http://www.w3.org/2000/svg"
   xmlns="http://www.w3.org/2000/svg"
   xmlns:xlink="http://www.w3.org/1999/xlink"
   xmlns:sodipodi="http://sodipodi.sourceforge.net/DTD/sodipodi-0.dtd"
   xmlns:inkscape="http://www.inkscape.org/namespaces/inkscape"
   version="1.1"
   id="svg815"
   xml:space="preserve"
   width="179.147"
   height="177.0927"
   viewBox="0 0 179.147 177.09269"
   sodipodi:docname="logo.svg"
   inkscape:version="0.92.2 (5c3e80d, 2017-08-06)"><metadata
     id="metadata821"><rdf:RDF><cc:Work
         rdf:about=""><dc:format>image/svg+xml</dc:format><dc:type
           rdf:resource="http://purl.org/dc/dcmitype/StillImage" /><dc:title></dc:title></cc:Work></rdf:RDF></metadata><defs
     id="defs819"><clipPath
       clipPathUnits="userSpaceOnUse"
       id="clipPath831"><path
         d="M 0,161.873 H 161.946 V 0 H 0 Z"
         id="path829"
         inkscape:connector-curvature="0" /></clipPath><path
       d="M 5.894,2.844 A 2.993,2.993 0 0 1 5.468,4.516 2.957,2.957 0 0 1 4.193,5.67 2.926,2.926 0 0 1 0.955,5.165 2.997,2.997 0 0 1 0.179,1.955 C 0.379,1.4 0.737,0.92 1.208,0.574 A 2.932,2.932 0 0 1 4.94,0.783 c 0.576,0.532 0.919,1.274 0.953,2.061 z"
       id="path0_fill"
       inkscape:connector-curvature="0" /><path
       d="M 18.265,7.134 C 10.415,7.134 3.559,4.258 0,0 a 19.505,19.505 0 0 0 7.069,9.473 19.244,19.244 0 0 0 11.2,3.6 c 4.013,0 7.927,-1.258 11.2,-3.6 A 19.505,19.505 0 0 0 36.538,0 C 32.971,4.258 26.115,7.134 18.265,7.134 Z"
       id="path1_fill"
       inkscape:connector-curvature="0" /><path
       d="m 18.273,5.94 c 7.85,0 14.706,2.876 18.265,7.133 A 19.505,19.505 0 0 0 29.469,3.6 19.243,19.243 0 0 0 18.27,0 19.243,19.243 0 0 0 7.07,3.6 19.505,19.505 0 0 0 0,13.073 C 3.567,8.825 10.423,5.94 18.273,5.94 Z"
       id="path2_fill"
       inkscape:connector-curvature="0" /><path
       d="M 7.428,3.583 A 3.772,3.772 0 0 1 6.892,5.693 3.727,3.727 0 0 1 5.284,7.145 3.688,3.688 0 0 1 1.202,6.507 3.754,3.754 0 0 1 0.105,4.632 3.778,3.778 0 0 1 0.227,2.459 3.744,3.744 0 0 1 1.526,0.72 3.696,3.696 0 0 1 6.23,0.988 3.76,3.76 0 0 1 7.428,3.583 Z"
       id="path3_fill"
       inkscape:connector-curvature="0" /><path
       d="M 2.275,4.396 A 2.166,2.166 0 0 1 1.048,4.078 2.193,2.193 0 0 1 0.203,3.127 2.216,2.216 0 0 1 0.575,0.71 2.163,2.163 0 0 1 2.931,0.134 c 0.405,0.15 0.757,0.418 1.011,0.77 A 2.211,2.211 0 0 1 3.786,3.687 c -0.39,0.43 -0.934,0.684 -1.511,0.71 z"
       id="path4_fill"
       inkscape:connector-curvature="0" /><clipPath
       clipPathUnits="userSpaceOnUse"
       id="clipPath831-6"><path
         d="M 0,161.873 H 161.946 V 0 H 0 Z"
         id="path829-6"
         inkscape:connector-curvature="0" /></clipPath></defs><sodipodi:namedview
     pagecolor="#ffffff"
     bordercolor="#666666"
     borderopacity="1"
     objecttolerance="10"
     gridtolerance="10"
     guidetolerance="10"
     inkscape:pageopacity="0"
     inkscape:pageshadow="2"
     inkscape:window-width="1200"
     inkscape:window-height="1856"
     id="namedview817"
     showgrid="false"
     inkscape:zoom="3.4450204"
     inkscape:cx="97.816279"
     inkscape:cy="6.6076815"
     inkscape:window-x="0"
     inkscape:window-y="27"
     inkscape:window-maximized="1"
     inkscape:current-layer="g823"
     fit-margin-top="0"
     fit-margin-left="0"
     fit-margin-right="0"
     fit-margin-bottom="0"
     showguides="true"
     inkscape:guide-bbox="true"><inkscape:grid
       type="xygrid"
       id="grid862"
       originx="-10.429273"
       originy="-9.8683647" /><sodipodi:guide
       position="41.239506,129.75344"
       orientation="1,0"
       id="guide872"
       inkscape:locked="false" /><sodipodi:guide
       position="137.81596,85.882971"
       orientation="1,0"
       id="guide874"
       inkscape:locked="false" /><sodipodi:guide
       position="77.188844,135.3237"
       orientation="0,1"
       id="guide876"
       inkscape:locked="false" /><sodipodi:guide
       position="97.461955,38.716252"
       orientation="0,1"
       id="guide878"
       inkscape:locked="false" /></sodipodi:namedview><g
     inkscape:groupmode="layer"
     id="layer3"
     inkscape:label="bg"
     transform="translate(15.706953,-50.943647)" /><g
     id="g823"
     inkscape:groupmode="layer"
     inkscape:label="robot-framework-rgb"
     transform="matrix(1.3333333,0,0,-1.3333333,15.706953,164.88702)"
     style="display:inline"><g
       id="g825"
       style="fill:#1bbeb3;fill-opacity:1"
       transform="matrix(0.74531249,0,0,0.74531249,-4.9924279,-4.2164898)"><g
         id="g827"
         clip-path="url(#clipPath831)"
         style="fill:#1bbeb3;fill-opacity:1"><g
           id="g833"
           transform="translate(52.4477,88.1268)"
           style="fill:#1bbeb3;fill-opacity:1"><path
             d="m 0,0 c 0,7.6 6.179,13.779 13.77,13.779 7.6,0 13.779,-6.179 13.779,-13.779 0,-2.769 -2.238,-5.007 -4.998,-5.007 -2.761,0 -4.999,2.238 -4.999,5.007 0,2.078 -1.695,3.765 -3.782,3.765 C 11.693,3.765 9.997,2.078 9.997,0 9.997,-2.769 7.76,-5.007 4.999,-5.007 2.238,-5.007 0,-2.769 0,0 m 57.05,-23.153 c 0,-2.771 -2.237,-5.007 -4.998,-5.007 H 5.674 c -2.761,0 -4.999,2.236 -4.999,5.007 0,2.769 2.238,5.007 4.999,5.007 h 46.378 c 2.761,0 4.998,-2.238 4.998,-5.007 M 35.379,-2.805 c -1.545,2.291 -0.941,5.398 1.35,6.943 l 11.594,7.83 c 2.273,1.58 5.398,0.941 6.943,-1.332 1.545,-2.29 0.941,-5.398 -1.35,-6.943 l -11.594,-7.83 c -0.852,-0.586 -1.829,-0.87 -2.788,-0.87 -1.607,0 -3.187,0.781 -4.155,2.202 m 31.748,-30.786 c 0,-0.945 -0.376,-1.852 -1.045,-2.522 l -8.617,-8.617 c -0.669,-0.668 -1.576,-1.045 -2.523,-1.045 H 2.109 c -0.947,0 -1.854,0.377 -2.523,1.045 l -8.617,8.617 c -0.669,0.67 -1.045,1.577 -1.045,2.522 v 52.799 c 0,0.947 0.376,1.854 1.045,2.522 l 8.617,8.619 c 0.669,0.668 1.576,1.044 2.523,1.044 h 52.833 c 0.947,0 1.854,-0.376 2.523,-1.044 l 8.617,-8.619 c 0.669,-0.668 1.045,-1.575 1.045,-2.522 z m 7.334,61.086 -11.25,11.25 c -1.705,1.705 -4.018,2.663 -6.428,2.663 H 0.26 c -2.412,0 -4.725,-0.959 -6.43,-2.665 L -17.412,27.494 c -1.704,-1.705 -2.661,-4.016 -2.661,-6.427 v -56.515 c 0,-2.411 0.958,-4.725 2.663,-6.428 l 11.25,-11.25 c 1.705,-1.705 4.017,-2.662 6.428,-2.662 h 56.515 c 2.41,0 4.723,0.957 6.428,2.662 l 11.25,11.25 c 1.705,1.703 2.663,4.017 2.663,6.428 v 56.514 c 0,2.412 -0.958,4.724 -2.663,6.429"
             style="fill:#1bbeb3;fill-opacity:1;fill-rule:nonzero;stroke:none"
             id="path835"
             inkscape:connector-curvature="0" /></g></g></g><path
       style="fill:none;fill-opacity:1;stroke:#3a5f96;stroke-width:6.86443138;stroke-linecap:butt;stroke-linejoin:miter;stroke-miterlimit:4;stroke-dasharray:none;stroke-opacity:1"
       d="M 19.149416,120.23305 H 1.6176735 l -9.965673,-10.05056 V 54.277952"
       id="path843"
       inkscape:connector-curvature="0"
       sodipodi:nodetypes="cccc" /><use
       x="0"
       y="0"
       xlink:href="#path843"
       id="use866"
       transform="matrix(1,0,0,-1,2.1749198e-7,114.511)"
       width="100%"
       height="100%" /><use
       x="0"
       y="0"
       xlink:href="#path843"
       id="use868"
       transform="matrix(-1,0,0,1,110.79983,0)"
       width="100%"
       height="100%" /><use
       x="0"
       y="0"
       xlink:href="#use868"
       id="use870"
       transform="matrix(1,0,0,-1,0,114.511)"
       width="100%"
       height="100%" /></g><g
     inkscape:groupmode="layer"
     id="layer2"
     inkscape:label="moons"
     style="display:inline"
     transform="translate(15.706953,-50.943647)" /><g
     inkscape:groupmode="layer"
     id="layer1"
     inkscape:label="jupyter logo"
     style="display:none"
     transform="translate(15.706953,-50.943647)"><g
       style="mix-blend-mode:normal"
       id="g956"
       figma:type="group"
       transform="matrix(3.7057119,0,0,3.7057119,33.489264,20.157315)"><use
         id="use954"
         figma:type="vector"
         style="mix-blend-mode:normal;fill:#f37726"
         transform="translate(1.74,30.98)"
         xlink:href="#path1_fill"
         x="0"
         y="0"
         width="100%"
         height="100%" /></g><g
       style="mix-blend-mode:normal"
       id="g960"
       figma:type="group"
       transform="matrix(3.7516554,0,0,3.7516554,34.343564,18.704265)"><use
         id="use958"
         figma:type="vector"
         style="mix-blend-mode:normal;fill:#f37726"
         transform="translate(1.73,4.48)"
         xlink:href="#path2_fill"
         x="0"
         y="0"
         width="100%"
         height="100%" /></g></g></svg>